<svg width="24" height="24" viewBox="0 0 24 24" fill="none" xmlns="http://www.w3.org/2000/svg">
<path d="M19.7161 8.96289H10.9036C9.82209 8.96289 8.94531 9.83966 8.94531 10.9212V19.7337C8.94531 20.8153 9.82209 21.692 10.9036 21.692H19.7161C20.7977 21.692 21.6745 20.8153 21.6745 19.7337V10.9212C21.6745 9.83966 20.7977 8.96289 19.7161 8.96289Z" stroke="#747681" stroke-width="1.96225" stroke-linecap="round" stroke-linejoin="round"/>
<path d="M5.02734 14.8375H4.04817C3.52879 14.8375 3.03068 14.6312 2.66343 14.264C2.29617 13.8967 2.08984 13.3986 2.08984 12.8792V4.06673C2.08984 3.54735 2.29617 3.04924 2.66343 2.68198C3.03068 2.31472 3.52879 2.1084 4.04817 2.1084H12.8607C13.38 2.1084 13.8781 2.31472 14.2454 2.68198C14.6127 3.04924 14.819 3.54735 14.819 4.06673V5.04589" stroke="#747681" stroke-width="1.96225" stroke-linecap="round" stroke-linejoin="round"/>
</svg>
