<svg width="17" height="17" viewBox="0 0 17 17" fill="none" xmlns="http://www.w3.org/2000/svg">
    <path
        d="M14.9215 9.04599C14.9215 8.58973 14.8845 8.13099 14.8056 7.68213H8.47461V10.2668H12.1001C11.9496 11.1004 11.4662 11.8378 10.7584 12.3064V13.9835H12.9213C14.1915 12.8145 14.9215 11.0881 14.9215 9.04599Z"
        fill="#4285F4" />
    <path
        d="M8.47459 15.6038C10.2849 15.6038 11.8115 15.0095 12.9238 13.9835L10.7608 12.3064C10.1591 12.7158 9.38219 12.9476 8.47706 12.9476C6.72599 12.9476 5.24128 11.7663 4.70856 10.178H2.47656V11.9069C3.61599 14.1734 5.93677 15.6038 8.47459 15.6038Z"
        fill="#34A853" />
    <path
        d="M4.70524 10.1781C4.42408 9.34454 4.42408 8.44188 4.70524 7.60827V5.87939H2.47571C1.52372 7.77598 1.52372 10.0104 2.47571 11.907L4.70524 10.1781Z"
        fill="#FBBC04" />
    <path
        d="M8.47459 4.8361C9.43151 4.8213 10.3564 5.18138 11.0494 5.84234L12.9657 3.92603C11.7523 2.7866 10.1418 2.16017 8.47459 2.1799C5.93677 2.1799 3.61599 3.61035 2.47656 5.87934L4.70609 7.60821C5.23635 6.01745 6.72352 4.8361 8.47459 4.8361Z"
        fill="#EA4335" />
</svg>