<svg width="294" height="66" viewBox="0 0 294 66" fill="none" xmlns="http://www.w3.org/2000/svg">
    <mask id="mask0_1645_23108" style="mask-type:luminance" maskUnits="userSpaceOnUse" x="8" y="3" width="39"
        height="60">
        <path d="M8 3.98779H46.4414V62.6603H8V3.98779Z" fill="white" />
    </mask>
    <g mask="url(#mask0_1645_23108)">
        <path
            d="M25.0184 50.2397L46.3427 49.5846L8.00391 62.6523L39.9727 3.99951L45.0285 13.2744L39.9727 22.6124L25.0184 50.2397Z"
            fill="#FF073A" />
    </g>
    <mask id="mask1_1645_23108" style="mask-type:luminance" maskUnits="userSpaceOnUse" x="23" y="17" width="49"
        height="46">
        <path d="M23.2031 17.7266H71.7877V62.6604H23.2031V17.7266Z" fill="white" />
    </mask>
    <g mask="url(#mask1_1645_23108)">
        <path d="M57.2518 54.317L47.1007 35.6922L42.4633 27.1751L47.5191 17.845L71.9416 62.6525H24.1582L57.2518 54.317Z"
            fill="#02066F" />
    </g>
    <path d="M42.4645 27.1753L47.1019 35.6924L41.0713 46.8341L31.6543 47.1262L42.4645 27.1753Z" fill="#00022E" />
    <path
        d="M85.5902 22.2269H78.8097V5.02293C78.8097 4.73876 78.6203 4.54932 78.3401 4.54932H74.413C74.1328 4.54932 73.9434 4.73876 73.9434 5.02293V26.0592C73.9434 26.3394 74.1328 26.5288 74.413 26.5288H85.5902C85.8744 26.5288 86.0639 26.3394 86.0639 26.0592V22.6965C86.0639 22.4163 85.8744 22.2269 85.5902 22.2269Z"
        fill="white" />
    <path
        d="M113.018 4.54932H109.091C108.811 4.54932 108.622 4.73876 108.622 5.02293V17.988C108.622 20.656 107.398 22.1321 105.042 22.1321C102.654 22.1321 101.431 20.656 101.431 17.988V5.02293C101.431 4.73876 101.241 4.54932 100.961 4.54932H97.0341C96.7539 4.54932 96.5645 4.73876 96.5645 5.02293V17.988C96.5645 23.7661 100.113 26.9353 105.042 26.9353C109.94 26.9353 113.488 23.7661 113.488 17.988V5.02293C113.488 4.73876 113.299 4.54932 113.018 4.54932Z"
        fill="white" />
    <path
        d="M147.097 4.54932H142.763C142.51 4.54932 142.293 4.64404 142.199 4.86506L135.793 20.8771L129.324 4.86506C129.23 4.64404 129.013 4.54932 128.76 4.54932H124.458C124.178 4.54932 123.988 4.73876 123.988 5.02293V26.0592C123.988 26.3394 124.178 26.5288 124.458 26.5288H128.385C128.665 26.5288 128.855 26.3394 128.855 26.0592V13.6229L129.261 15.1306L133.468 26.1539C133.563 26.4025 133.816 26.5288 134.068 26.5288H137.522C137.77 26.5288 137.991 26.4025 138.086 26.1539L142.293 15.1306L142.7 13.6545V26.0592C142.7 26.3394 142.889 26.5288 143.173 26.5288H147.097C147.377 26.5288 147.566 26.3394 147.566 26.0592V5.02293C147.566 4.73876 147.377 4.54932 147.097 4.54932Z"
        fill="white" />
    <path
        d="M178.047 25.996L170.45 4.92821C170.355 4.67561 170.102 4.54932 169.854 4.54932H166.242C165.99 4.54932 165.8 4.67561 165.709 4.92821L158.108 25.996C157.986 26.3078 158.14 26.5288 158.487 26.5288H162.568C162.82 26.5288 163.006 26.4341 163.101 26.1539L164.202 22.7597H171.957L173.054 26.1539C173.149 26.4341 173.339 26.5288 173.587 26.5288H177.668C178.015 26.5288 178.173 26.3078 178.047 25.996ZM165.52 18.8366L168.093 10.9549L170.667 18.8366H165.52Z"
        fill="white" />
    <path
        d="M206.204 4.54932H202.246C201.965 4.54932 201.776 4.73876 201.776 5.02293V18.6787L194.052 4.86506C193.926 4.64404 193.74 4.54932 193.488 4.54932H189.06C188.779 4.54932 188.59 4.73876 188.59 5.02293V26.0592C188.59 26.3394 188.779 26.5288 189.06 26.5288H192.987C193.267 26.5288 193.456 26.3394 193.456 26.0592V12.3678L201.18 26.2131C201.306 26.4341 201.492 26.5288 201.744 26.5288H206.204C206.484 26.5288 206.674 26.3394 206.674 26.0592V5.02293C206.674 4.73876 206.484 4.54932 206.204 4.54932Z"
        fill="white" />
    <path
        d="M237.154 25.996L229.557 4.92821C229.462 4.67561 229.21 4.54932 228.961 4.54932H225.35C225.097 4.54932 224.908 4.67561 224.817 4.92821L217.215 25.996C217.093 26.3078 217.247 26.5288 217.594 26.5288H221.675C221.928 26.5288 222.113 26.4341 222.208 26.1539L223.309 22.7597H231.065L232.162 26.1539C232.257 26.4341 232.446 26.5288 232.695 26.5288H236.776C237.123 26.5288 237.281 26.3078 237.154 25.996ZM224.627 18.8366L227.201 10.9549L229.774 18.8366H224.627Z"
        fill="white" />
    <path
        d="M268.797 14.1873H259.281C259.001 14.1873 258.811 14.3767 258.811 14.657V17.767C258.811 18.0472 259.001 18.2367 259.281 18.2367H264.558C264.432 20.4666 262.549 22.4123 259.155 22.4123C255.263 22.4123 252.721 19.5233 252.721 15.7897C252.721 12.1468 255.484 9.32095 259.032 9.32095C260.947 9.32095 262.486 10.0116 263.741 11.0773C263.962 11.2667 264.211 11.2667 264.4 11.0457L266.815 8.40925C267.005 8.19218 267.036 8.00273 266.815 7.75014C264.901 5.77281 262.138 4.54932 259.064 4.54932C252.753 4.54932 247.697 9.54197 247.697 15.7897C247.697 22.1321 252.785 27.184 259.218 27.184C265.434 27.184 269.266 22.5071 269.266 16.7922V14.657C269.266 14.3767 269.077 14.1873 268.797 14.1873Z"
        fill="white" />
    <path
        d="M279.766 5.02293V26.0592C279.766 26.3394 279.955 26.5288 280.235 26.5288H284.162C284.443 26.5288 284.632 26.3394 284.632 26.0592V5.02293C284.632 4.73876 284.443 4.54932 284.162 4.54932H280.235C279.955 4.54932 279.766 4.73876 279.766 5.02293Z"
        fill="white" />
    <path
        d="M83.7295 29.856V51.1841H80.082V29.856H83.7295ZM90.4238 29.856V32.7856H73.4463V29.856H90.4238ZM94.2363 29.856H101.78C103.401 29.856 104.783 30.1001 105.926 30.5884C107.068 31.0767 107.942 31.7993 108.548 32.7563C109.163 33.7036 109.471 34.8755 109.471 36.272C109.471 37.3364 109.275 38.2739 108.885 39.0845C108.494 39.895 107.942 40.5786 107.229 41.1353C106.517 41.6821 105.667 42.1069 104.681 42.4097L103.567 42.9517H96.7852L96.7559 40.0366H101.839C102.718 40.0366 103.45 39.8804 104.036 39.5679C104.622 39.2554 105.062 38.8306 105.354 38.2935C105.657 37.7466 105.809 37.1313 105.809 36.4478C105.809 35.7056 105.662 35.061 105.369 34.5142C105.086 33.9575 104.646 33.5327 104.051 33.2397C103.455 32.937 102.698 32.7856 101.78 32.7856H97.9131V51.1841H94.2363V29.856ZM106.409 51.1841L101.399 41.604L105.252 41.5894L110.335 50.9937V51.1841H106.409ZM122.438 32.6978L116.066 51.1841H112.214L120.241 29.856H122.702L122.438 32.6978ZM127.771 51.1841L121.384 32.6978L121.105 29.856H123.581L131.638 51.1841H127.771ZM127.463 43.2739V46.189H115.861V43.2739H127.463ZM141.222 51.1841H136.666L136.695 48.269H141.222C142.54 48.269 143.644 47.981 144.532 47.4048C145.431 46.8286 146.104 46.0034 146.554 44.9292C147.013 43.855 147.242 42.5757 147.242 41.0913V39.9341C147.242 38.7817 147.11 37.7612 146.847 36.8726C146.593 35.9839 146.212 35.2368 145.704 34.6313C145.206 34.0259 144.591 33.5669 143.858 33.2544C143.136 32.9419 142.301 32.7856 141.354 32.7856H136.578V29.856H141.354C142.77 29.856 144.063 30.0952 145.235 30.5737C146.407 31.0425 147.418 31.7212 148.268 32.6099C149.127 33.4985 149.786 34.563 150.245 35.8032C150.704 37.0435 150.934 38.4302 150.934 39.9634V41.0913C150.934 42.6245 150.704 44.0112 150.245 45.2515C149.786 46.4917 149.127 47.5562 148.268 48.4448C147.408 49.3237 146.383 50.0024 145.191 50.481C144.01 50.9497 142.687 51.1841 141.222 51.1841ZM138.702 29.856V51.1841H135.025V29.856H138.702ZM169.585 48.269V51.1841H158.262V48.269H169.585ZM159.302 29.856V51.1841H155.625V29.856H159.302ZM168.105 38.7622V41.6333H158.262V38.7622H168.105ZM169.512 29.856V32.7856H158.262V29.856H169.512ZM198.436 40.2856V48.4302C198.133 48.8306 197.659 49.27 197.015 49.7485C196.38 50.2173 195.535 50.6226 194.48 50.9644C193.426 51.3062 192.112 51.4771 190.54 51.4771C189.202 51.4771 187.977 51.2524 186.863 50.8032C185.75 50.3442 184.788 49.6753 183.978 48.7964C183.177 47.9175 182.557 46.8481 182.117 45.5884C181.678 44.3188 181.458 42.8735 181.458 41.2524V39.7729C181.458 38.1616 181.658 36.7261 182.059 35.4663C182.469 34.1968 183.055 33.1226 183.816 32.2437C184.578 31.3647 185.496 30.7007 186.57 30.2515C187.654 29.7925 188.88 29.563 190.247 29.563C191.995 29.563 193.44 29.856 194.583 30.4419C195.735 31.0181 196.624 31.8188 197.249 32.8442C197.874 33.8696 198.27 35.0415 198.436 36.3599H194.832C194.715 35.6177 194.485 34.9536 194.144 34.3677C193.812 33.7817 193.333 33.3228 192.708 32.9907C192.093 32.6489 191.292 32.478 190.306 32.478C189.456 32.478 188.709 32.6392 188.064 32.9614C187.42 33.2837 186.883 33.7573 186.453 34.3823C186.033 35.0073 185.716 35.769 185.501 36.6675C185.286 37.5659 185.179 38.5913 185.179 39.7437V41.2524C185.179 42.4243 185.301 43.4644 185.545 44.3726C185.799 45.2808 186.16 46.0474 186.629 46.6724C187.107 47.2974 187.688 47.771 188.372 48.0933C189.056 48.4058 189.827 48.562 190.687 48.562C191.526 48.562 192.215 48.4937 192.752 48.3569C193.289 48.2104 193.714 48.0396 194.026 47.8442C194.349 47.6392 194.598 47.4438 194.773 47.2583V43.0249H190.335V40.2856H198.436ZM211.813 32.6978L205.441 51.1841H201.589L209.616 29.856H212.077L211.813 32.6978ZM217.146 51.1841L210.759 32.6978L210.48 29.856H212.956L221.013 51.1841H217.146ZM216.838 43.2739V46.189H205.236V43.2739H216.838ZM225.895 29.856H229.176L235.343 46.3062L241.495 29.856H244.776L236.632 51.1841H234.024L225.895 29.856ZM224.4 29.856H227.521L228.062 44.0942V51.1841H224.4V29.856ZM243.15 29.856H246.285V51.1841H242.608V44.0942L243.15 29.856ZM265.61 48.269V51.1841H254.287V48.269H265.61ZM255.327 29.856V51.1841H251.65V29.856H255.327ZM264.131 38.7622V41.6333H254.287V38.7622H264.131ZM265.537 29.856V32.7856H254.287V29.856H265.537ZM280.834 45.6909C280.834 45.2515 280.766 44.8608 280.629 44.519C280.502 44.1772 280.272 43.8647 279.94 43.5815C279.608 43.2983 279.14 43.0249 278.534 42.7612C277.938 42.4878 277.177 42.2095 276.249 41.9263C275.233 41.6138 274.296 41.2671 273.437 40.8862C272.587 40.4956 271.845 40.0464 271.21 39.5386C270.575 39.021 270.082 38.4302 269.73 37.7661C269.379 37.0923 269.203 36.3159 269.203 35.437C269.203 34.5679 269.384 33.7769 269.745 33.064C270.116 32.3511 270.639 31.7358 271.312 31.2183C271.996 30.6909 272.802 30.2856 273.729 30.0024C274.657 29.7095 275.683 29.563 276.806 29.563C278.388 29.563 279.75 29.856 280.893 30.4419C282.045 31.0278 282.929 31.814 283.544 32.8003C284.169 33.7866 284.481 34.8755 284.481 36.0669H280.834C280.834 35.3638 280.683 34.7437 280.38 34.2065C280.087 33.6597 279.638 33.23 279.032 32.9175C278.437 32.605 277.68 32.4487 276.762 32.4487C275.893 32.4487 275.17 32.5806 274.594 32.8442C274.018 33.1079 273.588 33.4644 273.305 33.9136C273.021 34.3628 272.88 34.8706 272.88 35.437C272.88 35.8374 272.973 36.2036 273.158 36.5356C273.344 36.8579 273.627 37.1606 274.008 37.4438C274.389 37.7173 274.867 37.9761 275.443 38.2202C276.02 38.4644 276.698 38.6987 277.479 38.9233C278.661 39.2749 279.691 39.6655 280.57 40.0952C281.449 40.5151 282.182 40.9937 282.768 41.5308C283.354 42.0679 283.793 42.6782 284.086 43.3618C284.379 44.0356 284.525 44.8022 284.525 45.6616C284.525 46.5601 284.345 47.3706 283.983 48.0933C283.622 48.8062 283.104 49.4165 282.431 49.9243C281.767 50.4224 280.966 50.8081 280.028 51.0815C279.101 51.3452 278.065 51.4771 276.923 51.4771C275.897 51.4771 274.887 51.3403 273.891 51.0669C272.904 50.7935 272.006 50.3784 271.195 49.8218C270.385 49.2554 269.74 48.5522 269.262 47.7124C268.783 46.8628 268.544 45.8716 268.544 44.7388H272.221C272.221 45.4321 272.338 46.0229 272.572 46.5112C272.816 46.9995 273.153 47.3999 273.583 47.7124C274.013 48.0151 274.511 48.2397 275.077 48.3862C275.653 48.5327 276.269 48.606 276.923 48.606C277.782 48.606 278.5 48.4839 279.076 48.2397C279.662 47.9956 280.102 47.6538 280.395 47.2144C280.688 46.7749 280.834 46.2671 280.834 45.6909Z"
        fill="white" />
    <path
        d="M140.955 61.1833V62.02H136.045V55.2632H140.813V56.0999H137.008V58.1838H140.402V59.0047H137.008V61.1833H140.955Z"
        fill="white" />
    <path
        d="M148.249 62.0988C147.744 62.0988 147.255 62.0199 146.781 61.862C146.307 61.7041 145.932 61.4989 145.66 61.2463L146.023 60.4885C146.276 60.7214 146.599 60.9108 147.002 61.0569C147.401 61.2068 147.815 61.2779 148.249 61.2779C148.806 61.2779 149.22 61.1832 149.496 60.9937C149.769 60.8043 149.907 60.5517 149.907 60.2359C149.907 60.007 149.832 59.8176 149.686 59.6676C149.536 59.5216 149.354 59.4111 149.133 59.3361C148.912 59.265 148.597 59.1782 148.186 59.0835C147.681 58.9572 147.27 58.8388 146.955 58.7204C146.647 58.5941 146.378 58.4046 146.15 58.152C145.929 57.8995 145.818 57.56 145.818 57.1259C145.818 56.7588 145.913 56.4313 146.102 56.1471C146.292 55.855 146.58 55.6222 146.97 55.4525C147.357 55.2749 147.839 55.1841 148.407 55.1841C148.806 55.1841 149.196 55.2393 149.575 55.342C149.962 55.4485 150.302 55.5945 150.586 55.784L150.254 56.5576C149.978 56.38 149.678 56.2418 149.354 56.1471C149.039 56.0524 148.723 56.005 148.407 56.005C147.859 56.005 147.448 56.1076 147.176 56.305C146.899 56.5062 146.765 56.7628 146.765 57.0785C146.765 57.3114 146.844 57.5008 147.002 57.6469C147.16 57.7968 147.349 57.9113 147.57 57.9942C147.799 58.0692 148.111 58.1481 148.502 58.231C149.015 58.3573 149.425 58.4836 149.733 58.6099C150.037 58.7283 150.302 58.9098 150.523 59.1624C150.744 59.415 150.854 59.7544 150.854 60.1728C150.854 60.5319 150.759 60.8595 150.57 61.1516C150.38 61.4476 150.084 61.6804 149.686 61.8462C149.295 62.0159 148.818 62.0988 148.249 62.0988Z"
        fill="white" />
    <path d="M157.373 56.0999H155.053V55.2632H160.641V56.0999H158.336V62.02H157.373V56.0999Z" fill="white" />
    <path
        d="M165.463 55.2632H168.305C169.019 55.2632 169.65 55.4053 170.199 55.6894C170.755 55.9736 171.186 56.3762 171.494 56.8892C171.797 57.3944 171.951 57.9786 171.951 58.6416C171.951 59.3047 171.797 59.8967 171.494 60.4098C171.186 60.9149 170.755 61.3096 170.199 61.5938C169.65 61.878 169.019 62.02 168.305 62.02H165.463V55.2632ZM168.257 61.1833C168.802 61.1833 169.283 61.0807 169.694 60.8676C170.104 60.6584 170.42 60.3624 170.641 59.9835C170.87 59.5967 170.988 59.1468 170.988 58.6416C170.988 58.1364 170.87 57.6944 170.641 57.3155C170.42 56.9366 170.104 56.6445 169.694 56.4314C169.283 56.2104 168.802 56.0999 168.257 56.0999H166.426V61.1833H168.257Z"
        fill="white" />
    <path
        d="M177.29 62.0829C177.108 62.0829 176.951 62.0198 176.816 61.8935C176.69 61.7672 176.627 61.6093 176.627 61.4199C176.627 61.2304 176.69 61.0726 176.816 60.9463C176.951 60.82 177.108 60.7568 177.29 60.7568C177.468 60.7568 177.614 60.82 177.732 60.9463C177.858 61.0647 177.921 61.2226 177.921 61.4199C177.921 61.6093 177.858 61.7672 177.732 61.8935C177.606 62.0198 177.456 62.0829 177.29 62.0829Z"
        fill="white" />
    <path
        d="M193.72 61.1832V62.0199H188.873V61.3568L191.62 58.7046C191.956 58.3889 192.181 58.1165 192.299 57.8837C192.414 57.6429 192.473 57.4061 192.473 57.1732C192.473 56.818 192.347 56.5418 192.094 56.3523C191.841 56.155 191.482 56.0524 191.02 56.0524C190.282 56.0524 189.71 56.2971 189.3 56.7786L188.652 56.2102C188.913 55.8945 189.256 55.6498 189.679 55.4682C190.109 55.2788 190.586 55.1841 191.115 55.1841C191.818 55.1841 192.382 55.3577 192.804 55.7051C193.223 56.0445 193.436 56.5023 193.436 57.0785C193.436 57.4377 193.357 57.7811 193.199 58.1047C193.041 58.4204 192.745 58.7835 192.315 59.194L190.263 61.1832H193.72Z"
        fill="white" />
    <path
        d="M201.034 62.0988C200.497 62.0988 200.024 61.9646 199.613 61.6883C199.203 61.416 198.875 61.0213 198.635 60.5043C198.39 59.9794 198.271 59.3598 198.271 58.6414C198.271 57.9271 198.39 57.3114 198.635 56.7944C198.875 56.2694 199.203 55.8708 199.613 55.5945C200.024 55.3222 200.497 55.1841 201.034 55.1841C201.559 55.1841 202.029 55.3222 202.439 55.5945C202.858 55.8708 203.185 56.2694 203.418 56.7944C203.659 57.3114 203.781 57.9271 203.781 58.6414C203.781 59.3598 203.659 59.9794 203.418 60.5043C203.185 61.0213 202.858 61.416 202.439 61.6883C202.029 61.9646 201.559 62.0988 201.034 62.0988ZM201.034 61.2463C201.571 61.2463 202.001 61.0253 202.329 60.5832C202.652 60.1333 202.818 59.4861 202.818 58.6414C202.818 57.8008 202.652 57.1575 202.329 56.7154C202.001 56.2734 201.571 56.0524 201.034 56.0524C200.486 56.0524 200.048 56.2734 199.724 56.7154C199.396 57.1575 199.234 57.8008 199.234 58.6414C199.234 59.4861 199.396 60.1333 199.724 60.5832C200.048 61.0253 200.486 61.2463 201.034 61.2463Z"
        fill="white" />
    <path
        d="M213.224 61.1832V62.0199H208.377V61.3568L211.124 58.7046C211.46 58.3889 211.685 58.1165 211.803 57.8837C211.918 57.6429 211.977 57.4061 211.977 57.1732C211.977 56.818 211.85 56.5418 211.598 56.3523C211.345 56.155 210.986 56.0524 210.524 56.0524C209.786 56.0524 209.214 56.2971 208.804 56.7786L208.156 56.2102C208.417 55.8945 208.76 55.6498 209.182 55.4682C209.613 55.2788 210.09 55.1841 210.619 55.1841C211.322 55.1841 211.886 55.3577 212.308 55.7051C212.727 56.0445 212.94 56.5023 212.94 57.0785C212.94 57.4377 212.861 57.7811 212.703 58.1047C212.545 58.4204 212.249 58.7835 211.819 59.194L209.767 61.1832H213.224Z"
        fill="white" />
    <path
        d="M222.529 61.1832V62.0199H217.682V61.3568L220.429 58.7046C220.764 58.3889 220.989 58.1165 221.108 57.8837C221.222 57.6429 221.281 57.4061 221.281 57.1732C221.281 56.818 221.155 56.5418 220.903 56.3523C220.65 56.155 220.291 56.0524 219.829 56.0524C219.091 56.0524 218.519 56.2971 218.108 56.7786L217.461 56.2102C217.721 55.8945 218.065 55.6498 218.487 55.4682C218.917 55.2788 219.395 55.1841 219.924 55.1841C220.626 55.1841 221.191 55.3577 221.613 55.7051C222.031 56.0445 222.244 56.5023 222.244 57.0785C222.244 57.4377 222.165 57.7811 222.008 58.1047C221.85 58.4204 221.554 58.7835 221.124 59.194L219.071 61.1832H222.529Z"
        fill="white" />
</svg>