<svg width="60" height="61" viewBox="0 0 60 61" fill="none" xmlns="http://www.w3.org/2000/svg">
<path d="M15 7.51205C15 9.50118 14.2098 11.4088 12.8033 12.8154C11.3968 14.2219 9.48912 15.0121 7.5 15.0121C5.51088 15.0121 3.60322 14.2219 2.1967 12.8154C0.790176 11.4088 0 9.50118 0 7.51205C0 5.52293 0.790176 3.61528 2.1967 2.20875C3.60322 0.80223 5.51088 0.0120544 7.5 0.0120544C9.48912 0.0120544 11.3968 0.80223 12.8033 2.20875C14.2098 3.61528 15 5.52293 15 7.51205ZM15 30.0121C15 32.0012 14.2098 33.9088 12.8033 35.3154C11.3968 36.7219 9.48912 37.5121 7.5 37.5121C5.51088 37.5121 3.60322 36.7219 2.1967 35.3154C0.790176 33.9088 0 32.0012 0 30.0121C0 28.0229 0.790176 26.1153 2.1967 24.7088C3.60322 23.3022 5.51088 22.5121 7.5 22.5121C9.48912 22.5121 11.3968 23.3022 12.8033 24.7088C14.2098 26.1153 15 28.0229 15 30.0121ZM7.5 60.0121C9.48912 60.0121 11.3968 59.2219 12.8033 57.8154C14.2098 56.4088 15 54.5012 15 52.5121C15 50.5229 14.2098 48.6153 12.8033 47.2088C11.3968 45.8022 9.48912 45.0121 7.5 45.0121C5.51088 45.0121 3.60322 45.8022 2.1967 47.2088C0.790176 48.6153 0 50.5229 0 52.5121C0 54.5012 0.790176 56.4088 2.1967 57.8154C3.60322 59.2219 5.51088 60.0121 7.5 60.0121ZM37.5 7.51205C37.5 9.50118 36.7098 11.4088 35.3033 12.8154C33.8968 14.2219 31.9891 15.0121 30 15.0121C28.0109 15.0121 26.1032 14.2219 24.6967 12.8154C23.2902 11.4088 22.5 9.50118 22.5 7.51205C22.5 5.52293 23.2902 3.61528 24.6967 2.20875C26.1032 0.80223 28.0109 0.0120544 30 0.0120544C31.9891 0.0120544 33.8968 0.80223 35.3033 2.20875C36.7098 3.61528 37.5 5.52293 37.5 7.51205ZM30 37.5121C31.9891 37.5121 33.8968 36.7219 35.3033 35.3154C36.7098 33.9088 37.5 32.0012 37.5 30.0121C37.5 28.0229 36.7098 26.1153 35.3033 24.7088C33.8968 23.3022 31.9891 22.5121 30 22.5121C28.0109 22.5121 26.1032 23.3022 24.6967 24.7088C23.2902 26.1153 22.5 28.0229 22.5 30.0121C22.5 32.0012 23.2902 33.9088 24.6967 35.3154C26.1032 36.7219 28.0109 37.5121 30 37.5121ZM37.5 52.5121C37.5 54.5012 36.7098 56.4088 35.3033 57.8154C33.8968 59.2219 31.9891 60.0121 30 60.0121C28.0109 60.0121 26.1032 59.2219 24.6967 57.8154C23.2902 56.4088 22.5 54.5012 22.5 52.5121C22.5 50.5229 23.2902 48.6153 24.6967 47.2088C26.1032 45.8022 28.0109 45.0121 30 45.0121C31.9891 45.0121 33.8968 45.8022 35.3033 47.2088C36.7098 48.6153 37.5 50.5229 37.5 52.5121ZM52.5 15.0121C54.4891 15.0121 56.3968 14.2219 57.8033 12.8154C59.2098 11.4088 60 9.50118 60 7.51205C60 5.52293 59.2098 3.61528 57.8033 2.20875C56.3968 0.80223 54.4891 0.0120544 52.5 0.0120544C50.5109 0.0120544 48.6032 0.80223 47.1967 2.20875C45.7902 3.61528 45 5.52293 45 7.51205C45 9.50118 45.7902 11.4088 47.1967 12.8154C48.6032 14.2219 50.5109 15.0121 52.5 15.0121ZM60 30.0121C60 32.0012 59.2098 33.9088 57.8033 35.3154C56.3968 36.7219 54.4891 37.5121 52.5 37.5121C50.5109 37.5121 48.6032 36.7219 47.1967 35.3154C45.7902 33.9088 45 32.0012 45 30.0121C45 28.0229 45.7902 26.1153 47.1967 24.7088C48.6032 23.3022 50.5109 22.5121 52.5 22.5121C54.4891 22.5121 56.3968 23.3022 57.8033 24.7088C59.2098 26.1153 60 28.0229 60 30.0121ZM52.5 60.0121C54.4891 60.0121 56.3968 59.2219 57.8033 57.8154C59.2098 56.4088 60 54.5012 60 52.5121C60 50.5229 59.2098 48.6153 57.8033 47.2088C56.3968 45.8022 54.4891 45.0121 52.5 45.0121C50.5109 45.0121 48.6032 45.8022 47.1967 47.2088C45.7902 48.6153 45 50.5229 45 52.5121C45 54.5012 45.7902 56.4088 47.1967 57.8154C48.6032 59.2219 50.5109 60.0121 52.5 60.0121Z" fill="white"/>
</svg>
