<svg width="27" height="27" viewBox="0 0 27 27" fill="none" xmlns="http://www.w3.org/2000/svg">
<rect width="27" height="27" rx="13.5" fill="white"/>
<path d="M8.44364 7.9886L8.29168 8.59485L8.44364 7.9886ZM11.2558 6.36502L10.6548 6.1935L11.2558 6.36502ZM6.19905 11.8763L6.64809 11.4416L6.19905 11.8763ZM6.19905 15.1235L5.75001 14.6888H5.75001L6.19905 15.1235ZM8.44364 19.0113L8.5956 19.6175L8.44364 19.0113ZM11.2558 20.6348L10.6548 20.8064L11.2558 20.6348ZM15.745 20.6348L16.346 20.8064L15.745 20.6348ZM18.5571 19.0113L18.709 18.405L18.5571 19.0113ZM20.8017 15.1235L20.3526 15.5582L20.8017 15.1235ZM20.8017 11.8763L20.3526 11.4416L20.8017 11.8763ZM18.5571 7.9886L18.4051 7.38236L18.5571 7.9886ZM15.745 6.36502L16.346 6.1935L15.745 6.36502ZM8.29168 8.59485C9.84076 8.98315 11.4185 8.07224 11.8568 6.53654L10.6548 6.1935C10.4016 7.0805 9.49034 7.60664 8.5956 7.38236L8.29168 8.59485ZM6.64809 11.4416C5.45204 10.2062 6.62373 8.17676 8.29168 8.59485L8.5956 7.38236C5.70782 6.6585 3.67924 10.1721 5.75001 12.3111L6.64809 11.4416ZM6.64809 15.5582C7.75891 14.4108 7.75891 12.589 6.64809 11.4416L5.75001 12.3111C6.3916 12.9738 6.3916 14.0261 5.75001 14.6888L6.64809 15.5582ZM8.29168 18.405C6.62373 18.8231 5.45204 16.7937 6.64809 15.5582L5.75001 14.6888C3.67924 16.8278 5.70782 20.3414 8.5956 19.6175L8.29168 18.405ZM11.8568 20.4633C11.4185 18.9276 9.84076 18.0167 8.29168 18.405L8.5956 19.6175C9.49034 19.3932 10.4016 19.9194 10.6548 20.8064L11.8568 20.4633ZM15.1439 20.4633C14.6721 22.1169 12.3287 22.1169 11.8568 20.4633L10.6548 20.8064C11.4718 23.6692 15.5289 23.6692 16.346 20.8064L15.1439 20.4633ZM18.709 18.405C17.16 18.0167 15.5822 18.9276 15.1439 20.4633L16.346 20.8064C16.5991 19.9194 17.5104 19.3932 18.4051 19.6175L18.709 18.405ZM20.3526 15.5582C21.5487 16.7937 20.377 18.8231 18.709 18.405L18.4051 19.6175C21.2929 20.3414 23.3215 16.8278 21.2507 14.6888L20.3526 15.5582ZM20.3526 11.4416C19.2418 12.589 19.2418 14.4108 20.3526 15.5582L21.2507 14.6888C20.6091 14.0261 20.6091 12.9738 21.2507 12.3111L20.3526 11.4416ZM18.709 8.59485C20.377 8.17676 21.5487 10.2062 20.3526 11.4416L21.2507 12.3111C23.3215 10.1721 21.2929 6.6585 18.4051 7.38236L18.709 8.59485ZM15.1439 6.53654C15.5822 8.07224 17.16 8.98315 18.709 8.59485L18.4051 7.38236C17.5104 7.60664 16.5991 7.0805 16.346 6.1935L15.1439 6.53654ZM16.346 6.1935C15.5289 3.33068 11.4718 3.33068 10.6548 6.1935L11.8568 6.53654C12.3287 4.883 14.6721 4.883 15.1439 6.53654L16.346 6.1935ZM10.3754 13.4999C10.3754 15.2258 11.7745 16.6249 13.5004 16.6249V15.3749C12.4648 15.3749 11.6254 14.5355 11.6254 13.4999H10.3754ZM13.5004 16.6249C15.2263 16.6249 16.6254 15.2258 16.6254 13.4999H15.3754C15.3754 14.5355 14.5359 15.3749 13.5004 15.3749V16.6249ZM16.6254 13.4999C16.6254 11.774 15.2263 10.3749 13.5004 10.3749V11.6249C14.5359 11.6249 15.3754 12.4644 15.3754 13.4999H16.6254ZM13.5004 10.3749C11.7745 10.3749 10.3754 11.774 10.3754 13.4999H11.6254C11.6254 12.4644 12.4648 11.6249 13.5004 11.6249V10.3749Z" fill="url(#paint0_linear_1653_13750)" style="mix-blend-mode:hard-light"/>
<defs>
<linearGradient id="paint0_linear_1653_13750" x1="5.53125" y1="4.67139" x2="6.67902" y2="23.284" gradientUnits="userSpaceOnUse">
<stop stop-color="#414593"/>
<stop offset="1" stop-color="#00022E"/>
</linearGradient>
</defs>
</svg>
