<svg width="23" height="23" viewBox="0 0 23 23" fill="none" xmlns="http://www.w3.org/2000/svg">
<path fill-rule="evenodd" clip-rule="evenodd" d="M13.1725 2.68024C12.1481 1.81557 10.6495 1.81557 9.62499 2.68024L8.52717 3.60687C8.38202 3.72938 8.20241 3.80377 8.01316 3.81978L6.58164 3.94084C5.24584 4.05381 4.18614 5.11352 4.07317 6.44932L3.9521 7.88083C3.9361 8.07009 3.8617 8.2497 3.7392 8.39484L2.81257 9.49265C1.94789 10.5171 1.94789 12.0158 2.81257 13.0402L3.7392 14.138C3.8617 14.2832 3.9361 14.4628 3.9521 14.652L4.07317 16.0836C4.18614 17.4193 5.24584 18.4791 6.58164 18.592L8.01316 18.7131C8.20241 18.7291 8.38202 18.8035 8.52717 18.926L9.62499 19.8526C10.6495 20.7173 12.1481 20.7173 13.1725 19.8526L14.2704 18.926C14.4155 18.8035 14.5952 18.7291 14.7844 18.7131L16.2159 18.592C17.5517 18.4791 18.6113 17.4193 18.7244 16.0836L18.8455 14.652C18.8614 14.4628 18.9358 14.2832 19.0583 14.138L19.985 13.0402C20.8497 12.0158 20.8497 10.5171 19.985 9.49265L19.0583 8.39484C18.9358 8.2497 18.8614 8.07009 18.8455 7.88083L18.7244 6.44932C18.6113 5.11352 17.5517 4.05381 16.2159 3.94084L14.7844 3.81978C14.5952 3.80377 14.4155 3.72938 14.2704 3.60687L13.1725 2.68024ZM15.6488 9.55819C15.971 9.236 15.971 8.71364 15.6488 8.39146C15.3266 8.06928 14.8042 8.06928 14.482 8.39146L10.4821 12.3914L8.31544 10.2248C7.99326 9.90259 7.47089 9.90259 7.14871 10.2248C6.82652 10.547 6.82652 11.0693 7.14871 11.3915L9.8987 14.1415C10.2209 14.4637 10.7432 14.4637 11.0654 14.1415L15.6488 9.55819Z" fill="white"/>
</svg>
