<svg width="26" height="26" viewBox="0 0 26 26" fill="none" xmlns="http://www.w3.org/2000/svg">
<path d="M23.0957 3.75427C23.0895 3.11185 22.8304 2.49776 22.3745 2.04513C21.9186 1.5925 21.3026 1.33782 20.6602 1.3363L5.20703 1.28748C4.56525 1.2876 3.9497 1.54221 3.49534 1.99547C3.04098 2.44873 2.78488 3.06366 2.7832 3.70544V19.6469C2.7832 20.9799 3.87109 21.9906 5.20703 21.9906H18.4082L17.7734 19.8422L23.0957 24.725V3.75427ZM16.2915 16.6102C16.2915 16.6102 15.8657 16.1029 15.5103 15.6669C17.0601 15.2303 17.6514 14.2758 17.6514 14.2758C17.2257 14.5581 16.7695 14.7915 16.2915 14.9716C15.7396 15.2007 15.1649 15.3708 14.5771 15.4789C13.5644 15.6649 12.5259 15.6609 11.5146 15.4672C10.9198 15.3567 10.3376 15.1866 9.77686 14.9594C9.48022 14.8457 9.19177 14.7118 8.91357 14.5585C8.87793 14.535 8.84277 14.5233 8.80713 14.4994C8.7832 14.4877 8.77148 14.476 8.7583 14.476C8.54541 14.3578 8.42725 14.2753 8.42725 14.2753C8.42725 14.2753 8.99463 15.2074 10.4966 15.6552C10.1416 16.1034 9.7041 16.6224 9.7041 16.6224C7.09131 16.5399 6.09814 14.8417 6.09814 14.8417C6.09814 11.079 7.80078 8.02429 7.80078 8.02429C9.50342 6.76208 11.1113 6.79773 11.1113 6.79773L11.2295 6.93933C9.10107 7.54089 8.13184 8.47253 8.13184 8.47253C8.13184 8.47253 8.3916 8.33093 8.8291 8.14197C10.0942 7.58777 11.0996 7.44617 11.5146 7.39929C11.5809 7.38552 11.6482 7.37752 11.7158 7.37537C12.5081 7.27256 13.3098 7.26469 14.104 7.35193C15.351 7.49517 16.559 7.87553 17.6631 8.47253C17.6631 8.47253 16.729 7.5863 14.7188 6.98572L14.8843 6.79724C14.8843 6.79724 16.5039 6.7616 18.1953 8.02576C18.1953 8.02576 19.8979 11.0804 19.8979 14.8431C19.8979 14.8295 18.9043 16.5277 16.2915 16.6102Z" fill="white"/>
<path d="M10.7939 11.1508C10.1201 11.1508 9.58789 11.7289 9.58789 12.4481C9.58789 13.1674 10.1318 13.7455 10.7939 13.7455C11.4678 13.7455 12 13.1678 12 12.4481C12.0122 11.7274 11.4678 11.1508 10.7939 11.1508ZM15.1094 11.1508C14.4355 11.1508 13.9033 11.7289 13.9033 12.4481C13.9033 13.1674 14.4473 13.7455 15.1094 13.7455C15.7837 13.7455 16.3154 13.1678 16.3154 12.4481C16.3154 11.7284 15.772 11.1508 15.1094 11.1508Z" fill="white"/>
</svg>
