<svg width="23" height="26" viewBox="0 0 23 26" fill="none" xmlns="http://www.w3.org/2000/svg">
<g clip-path="url(#clip0_880_2731)">
<path d="M11.4854 10.4017C10.9703 10.4019 10.4668 10.5548 10.0386 10.8411C9.61046 11.1274 9.27679 11.5343 9.07981 12.0102C8.88283 12.4861 8.83139 13.0098 8.932 13.5149C9.03261 14.0201 9.28074 14.4841 9.64502 14.8482C10.0093 15.2124 10.4734 15.4603 10.9786 15.5607C11.4838 15.6612 12.0074 15.6095 12.4832 15.4124C12.9591 15.2152 13.3658 14.8814 13.652 14.4531C13.9381 14.0248 14.0908 13.5213 14.0908 13.0062C14.0903 12.3155 13.8156 11.6532 13.3271 11.1648C12.8385 10.6764 12.1761 10.402 11.4854 10.4017ZM17.5747 8.39978C17.4421 8.06377 17.2419 7.75858 16.9865 7.50315C16.731 7.24773 16.4259 7.04751 16.0898 6.91492C15.0645 6.51013 12.623 6.60095 11.4854 6.60095C10.3477 6.60095 7.90869 6.50671 6.88037 6.91492C6.54436 7.04751 6.23917 7.24773 5.98374 7.50315C5.72832 7.75858 5.5281 8.06377 5.39551 8.39978C4.99121 9.42517 5.08154 11.869 5.08154 13.0057C5.08154 14.1425 4.99121 16.5834 5.39746 17.6122C5.53005 17.9482 5.73027 18.2534 5.9857 18.5088C6.24112 18.7642 6.54631 18.9645 6.88232 19.097C7.90771 19.5018 10.3491 19.411 11.4873 19.411C12.6255 19.411 15.0635 19.5052 16.0918 19.097C16.4278 18.9645 16.733 18.7642 16.9884 18.5088C17.2439 18.2534 17.4441 17.9482 17.5767 17.6122C17.9844 16.5868 17.8906 14.1429 17.8906 13.0062C17.8906 11.8695 17.9844 9.42908 17.5767 8.40027L17.5747 8.39978ZM11.4854 17.0101C10.6935 17.0101 9.91934 16.7753 9.2609 16.3354C8.60246 15.8954 8.08927 15.2701 7.78622 14.5385C7.48318 13.8068 7.40389 13.0018 7.55838 12.2251C7.71287 11.4484 8.09421 10.735 8.65416 10.175C9.21412 9.61508 9.92755 9.23375 10.7042 9.07925C11.4809 8.92476 12.286 9.00405 13.0176 9.3071C13.7492 9.61015 14.3745 10.1233 14.8145 10.7818C15.2544 11.4402 15.4893 12.2143 15.4893 13.0062C15.4899 13.5322 15.3868 14.0531 15.1858 14.5392C14.9848 15.0253 14.6899 15.4669 14.318 15.8388C13.946 16.2108 13.5044 16.5057 13.0183 16.7067C12.5323 16.9076 12.0113 17.0108 11.4854 17.0101ZM15.6543 9.76892C15.4694 9.76902 15.2887 9.71429 15.1349 9.61165C14.9812 9.50902 14.8613 9.3631 14.7905 9.19233C14.7197 9.02157 14.7011 8.83365 14.7371 8.65232C14.7731 8.471 14.8621 8.30443 14.9928 8.17368C15.1235 8.04293 15.29 7.95387 15.4713 7.91777C15.6526 7.88167 15.8405 7.90015 16.0113 7.97087C16.1821 8.04159 16.3281 8.16138 16.4308 8.31508C16.5336 8.46878 16.5884 8.64949 16.5884 8.83435C16.5889 8.95711 16.5652 9.07876 16.5186 9.19233C16.472 9.3059 16.4034 9.40915 16.3168 9.49616C16.2302 9.58317 16.1272 9.65223 16.0139 9.69937C15.9006 9.74651 15.779 9.77081 15.6563 9.77087L15.6543 9.76892ZM20.0791 2.06873H2.8916C2.27 2.06873 1.67386 2.31566 1.23432 2.75519C0.794782 3.19473 0.547852 3.79087 0.547852 4.41248L0.547852 21.6C0.547852 22.2216 0.794782 22.8177 1.23432 23.2573C1.67386 23.6968 2.27 23.9437 2.8916 23.9437H20.0791C20.7007 23.9437 21.2968 23.6968 21.7364 23.2573C22.1759 22.8177 22.4229 22.2216 22.4229 21.6V4.41248C22.4229 3.79087 22.1759 3.19473 21.7364 2.75519C21.2968 2.31566 20.7007 2.06873 20.0791 2.06873ZM19.2432 16.2289C19.1802 17.4803 18.8945 18.5892 17.981 19.5004C17.0674 20.4115 15.9595 20.703 14.7095 20.7626C13.4199 20.8353 9.55371 20.8353 8.26416 20.7626C7.0127 20.6996 5.90771 20.4135 4.99268 19.5004C4.07764 18.5873 3.79004 17.4779 3.73047 16.2289C3.65771 14.9388 3.65771 11.0721 3.73047 9.78357C3.79346 8.5321 4.07568 7.42322 4.99268 6.51208C5.90967 5.60095 7.01758 5.31287 8.26416 5.2533C9.55371 5.18054 13.4199 5.18054 14.7095 5.2533C15.9609 5.31628 17.0693 5.60242 17.981 6.5155C18.8926 7.42859 19.1836 8.53796 19.2432 9.78943C19.3159 11.0746 19.3159 14.9379 19.2432 16.2289Z" fill="white"/>
</g>
<defs>
<clipPath id="clip0_880_2731">
<rect width="21.8833" height="25" fill="white" transform="translate(0.543945 0.506226)"/>
</clipPath>
</defs>
</svg>
