<svg width="26" height="26" viewBox="0 0 26 26" fill="none" xmlns="http://www.w3.org/2000/svg">
<mask id="mask0_880_2725" style="mask-type:alpha" maskUnits="userSpaceOnUse" x="0" y="0" width="26" height="26">
<path d="M21.9593 2.59033H4.09138C3.27264 2.59033 2.60742 3.26486 2.60742 4.09289V21.9283C2.60742 22.7563 3.27264 23.4308 4.09138 23.4308H21.9593C22.778 23.4308 23.4479 22.7563 23.4479 21.9283V4.09289C23.4479 3.26486 22.778 2.59033 21.9593 2.59033ZM8.90609 20.4536H5.81723V10.5079H8.91074V20.4536H8.90609ZM7.36166 9.14951C6.37081 9.14951 5.57068 8.34473 5.57068 7.35853C5.57068 6.37232 6.37081 5.56755 7.36166 5.56755C8.34786 5.56755 9.15264 6.37232 9.15264 7.35853C9.15264 8.34938 8.35251 9.14951 7.36166 9.14951ZM20.4847 20.4536H17.3958V15.6156C17.3958 14.462 17.3725 12.978 15.7909 12.978C14.1813 12.978 13.9348 14.234 13.9348 15.5319V20.4536H10.8459V10.5079H13.8092V11.8662H13.8511C14.2651 11.0847 15.2745 10.2613 16.7771 10.2613C19.9032 10.2613 20.4847 12.3221 20.4847 15.0016V20.4536Z" fill="white"/>
</mask>
<g mask="url(#mask0_880_2725)">
<rect x="0.523438" y="0.506226" width="25.0086" height="25.0086" fill="white"/>
</g>
</svg>
