<svg width="26" height="26" viewBox="0 0 26 26" fill="none" xmlns="http://www.w3.org/2000/svg">
<path d="M12.9508 2.5896C7.20085 2.5896 2.53418 7.25627 2.53418 13.0063C2.53418 18.7563 7.20085 23.4229 12.9508 23.4229C18.7008 23.4229 23.3675 18.7563 23.3675 13.0063C23.3675 7.25627 18.7008 2.5896 12.9508 2.5896ZM17.7842 9.67293C17.6279 11.3188 16.9508 15.3188 16.6071 17.1625C16.4613 17.9438 16.1696 18.2042 15.8988 18.2354C15.2946 18.2875 14.8363 17.8396 14.2529 17.4542C13.3363 16.85 12.8154 16.475 11.93 15.8917C10.8988 15.2146 11.5654 14.8396 12.1592 14.2354C12.3154 14.0792 14.9821 11.6521 15.0342 11.4333C15.0414 11.4002 15.0405 11.3658 15.0314 11.3331C15.0223 11.3005 15.0054 11.2705 14.9821 11.2459C14.9196 11.1938 14.8363 11.2146 14.7633 11.225C14.6696 11.2459 13.2113 12.2146 10.3675 14.1313C9.95085 14.4125 9.57585 14.5583 9.24251 14.5479C8.86751 14.5375 8.15918 14.3396 7.62793 14.1625C6.97168 13.9542 6.46126 13.8396 6.50293 13.475C6.52376 13.2875 6.78418 13.1 7.27376 12.9021C10.3154 11.5792 12.3363 10.7042 13.3467 10.2875C16.2425 9.07918 16.8363 8.87085 17.2321 8.87085C17.3154 8.87085 17.5133 8.89168 17.6383 8.99585C17.7425 9.07918 17.7738 9.19377 17.7842 9.2771C17.7738 9.3396 17.7946 9.5271 17.7842 9.67293Z" fill="white"/>
</svg>
