<svg width="26" height="26" viewBox="0 0 26 26" fill="none" xmlns="http://www.w3.org/2000/svg">
<mask id="mask0_880_2713" style="mask-type:alpha" maskUnits="userSpaceOnUse" x="0" y="0" width="26" height="26">
<path d="M20.7823 8.32339C20.7955 8.50574 20.7955 8.68813 20.7955 8.87047C20.7955 14.4323 16.4979 20.8407 8.64295 20.8407C6.223 20.8407 3.97498 20.1504 2.08398 18.9521C2.42781 18.9911 2.75837 19.0042 3.11543 19.0042C5.11218 19.0042 6.9503 18.3399 8.41814 17.2067C6.54037 17.1676 4.96674 15.9563 4.42456 14.289C4.68905 14.328 4.95351 14.3541 5.23124 14.3541C5.61471 14.3541 5.99823 14.302 6.35525 14.2109C4.39814 13.8201 2.93027 12.1268 2.93027 10.0818V10.0297C3.49886 10.3423 4.1601 10.5377 4.86091 10.5637C3.71045 9.80826 2.95672 8.51877 2.95672 7.05992C2.95672 6.27842 3.16826 5.56203 3.53855 4.93681C5.64113 7.48977 8.80161 9.15698 12.3455 9.33937C12.2794 9.02676 12.2397 8.70116 12.2397 8.37552C12.2397 6.05698 14.144 4.16833 16.511 4.16833C17.7408 4.16833 18.8516 4.67632 19.6318 5.49692C20.5971 5.31457 21.5228 4.96287 22.3427 4.48094C22.0252 5.45786 21.3509 6.27846 20.4649 6.79944C21.3244 6.7083 22.1575 6.4738 22.9245 6.1482C22.3427 6.98178 21.6154 7.7242 20.7823 8.32339Z" fill="white"/>
</mask>
<g mask="url(#mask0_880_2713)">
<rect y="0.000244141" width="25.0086" height="25.0086" fill="white"/>
</g>
</svg>
