<svg width="38" height="39" viewBox="0 0 38 39" fill="none" xmlns="http://www.w3.org/2000/svg">
    <circle cx="18.9503" cy="19.6163" r="18.6378" fill="#F7F9FB" />
    <path d="M30.1453 7.96777L20.4375 15.2481L22.2427 10.9576L30.1453 7.96777Z" fill="#E17726" stroke="#E17726"
        stroke-width="0.291215" stroke-linecap="round" stroke-linejoin="round" />
    <path d="M7.75391 7.96777L17.3753 15.3161L15.6565 10.9576L7.75391 7.96777Z" fill="#E27625" stroke="#E27625"
        stroke-width="0.291215" stroke-linecap="round" stroke-linejoin="round" />
    <path d="M26.6494 24.8486L24.0664 28.848L29.5972 30.3914L31.1816 24.9361L26.6494 24.8486Z" fill="#E27625"
        stroke="#E27625" stroke-width="0.291215" stroke-linecap="round" stroke-linejoin="round" />
    <path d="M6.72656 24.9361L8.30131 30.3914L13.8226 28.848L11.2492 24.8486L6.72656 24.9361Z" fill="#E27625"
        stroke="#E27625" stroke-width="0.291215" stroke-linecap="round" stroke-linejoin="round" />
    <path d="M13.5246 18.0925L11.9883 20.4416L17.4615 20.694L17.2791 14.7241L13.5246 18.0925Z" fill="#E27625"
        stroke="#E27625" stroke-width="0.291215" stroke-linecap="round" stroke-linejoin="round" />
    <path d="M24.3743 18.0923L20.5623 14.656L20.4375 20.6939L25.9107 20.4415L24.3743 18.0923Z" fill="#E27625"
        stroke="#E27625" stroke-width="0.291215" stroke-linecap="round" stroke-linejoin="round" />
    <path d="M13.8223 28.8477L17.135 27.2267L14.2832 24.9746L13.8223 28.8477Z" fill="#E27625" stroke="#E27625"
        stroke-width="0.291215" stroke-linecap="round" stroke-linejoin="round" />
    <path opacity="0.8" d="M20.7656 27.2267L24.0687 28.8477L23.6174 24.9746L20.7656 27.2267Z" fill="#E27625"
        stroke="#E27625" stroke-width="0.291215" stroke-linecap="round" stroke-linejoin="round" />
    <path d="M24.0687 28.8479L20.7656 27.2268L21.0344 29.4012L21.0056 30.3234L24.0687 28.8479Z" fill="#D5BFB2"
        stroke="#D5BFB2" stroke-width="0.291215" stroke-linecap="round" stroke-linejoin="round" />
    <path d="M13.8223 28.8479L16.895 30.3234L16.8758 29.4012L17.135 27.2268L13.8223 28.8479Z" fill="#D5BFB2"
        stroke="#D5BFB2" stroke-width="0.291215" stroke-linecap="round" stroke-linejoin="round" />
    <path d="M16.9533 23.538L14.207 22.7226L16.1467 21.8198L16.9533 23.538Z" fill="#233447" stroke="#233447"
        stroke-width="0.291215" stroke-linecap="round" stroke-linejoin="round" />
    <path d="M20.9473 23.538L21.7539 21.8198L23.7031 22.7226L20.9473 23.538Z" fill="#233447" stroke="#233447"
        stroke-width="0.291215" stroke-linecap="round" stroke-linejoin="round" />
    <path d="M13.8214 28.848L14.3015 24.8486L11.248 24.9361L13.8214 28.848Z" fill="#CC6228" stroke="#CC6228"
        stroke-width="0.291215" stroke-linecap="round" stroke-linejoin="round" />
    <path d="M23.5977 24.8486L24.0682 28.848L26.6511 24.9361L23.5977 24.8486Z" fill="#CC6228" stroke="#CC6228"
        stroke-width="0.291215" stroke-linecap="round" stroke-linejoin="round" />
    <path d="M25.9107 20.4414L20.4375 20.6938L20.9464 23.538L21.753 21.8198L23.7022 22.7226L25.9107 20.4414Z"
        fill="#CC6228" stroke="#CC6228" stroke-width="0.291215" stroke-linecap="round" stroke-linejoin="round" />
    <path d="M14.2064 22.7226L16.146 21.8198L16.9526 23.538L17.4615 20.6938L11.9883 20.4414L14.2064 22.7226Z"
        fill="#CC6228" stroke="#CC6228" stroke-width="0.291215" stroke-linecap="round" stroke-linejoin="round" />
    <path d="M11.9883 20.4414L14.2832 24.9747L14.2063 22.7226L11.9883 20.4414Z" fill="#E27525" stroke="#E27525"
        stroke-width="0.291215" stroke-linecap="round" stroke-linejoin="round" />
    <path d="M23.7016 22.7226L23.6152 24.9747L25.9102 20.4414L23.7016 22.7226Z" fill="#E27525" stroke="#E27525"
        stroke-width="0.291215" stroke-linecap="round" stroke-linejoin="round" />
    <path d="M17.4621 20.6938L16.9531 23.5381L17.5965 26.8967L17.7405 22.4703L17.4621 20.6938Z" fill="#E27525"
        stroke="#E27525" stroke-width="0.291215" stroke-linecap="round" stroke-linejoin="round" />
    <path d="M20.4388 20.6938L20.1699 22.4606L20.3044 26.8967L20.9477 23.5381L20.4388 20.6938Z" fill="#E27525"
        stroke="#E27525" stroke-width="0.291215" stroke-linecap="round" stroke-linejoin="round" />
    <path d="M20.9461 23.5381L20.3027 26.8967L20.7637 27.2268L23.6155 24.9747L23.7019 22.7227L20.9461 23.5381Z"
        fill="#F5841F" stroke="#F5841F" stroke-width="0.291215" stroke-linecap="round" stroke-linejoin="round" />
    <path d="M14.207 22.7227L14.2839 24.9747L17.1357 27.2268L17.5966 26.8967L16.9533 23.5381L14.207 22.7227Z"
        fill="#F5841F" stroke="#F5841F" stroke-width="0.291215" stroke-linecap="round" stroke-linejoin="round" />
    <path
        d="M21.0047 30.3234L21.0334 29.4012L20.7838 29.1876H17.1158L16.8758 29.4012L16.895 30.3234L13.8223 28.8479L14.8977 29.741L17.0774 31.265H20.8126L23.0019 29.741L24.0677 28.8479L21.0047 30.3234Z"
        fill="#C0AC9D" stroke="#C0AC9D" stroke-width="0.291215" stroke-linecap="round" stroke-linejoin="round" />
    <path
        d="M20.7639 27.2267L20.3029 26.8967H17.5951L17.1343 27.2267L16.875 29.4012L17.1151 29.1876H20.7831L21.0327 29.4012L20.7639 27.2267Z"
        fill="#161616" stroke="#161616" stroke-width="0.291215" stroke-linecap="round" stroke-linejoin="round" />
    <path
        d="M30.5598 15.7238L31.376 11.705L30.1469 7.96777L20.7656 15.0055L24.376 18.0923L29.4747 19.597L30.5982 18.2671L30.1085 17.9079L30.8862 17.1896L30.2909 16.7236L31.0687 16.1218L30.5598 15.7238Z"
        fill="#763E1A" stroke="#763E1A" stroke-width="0.291215" stroke-linecap="round" stroke-linejoin="round" />
    <path
        d="M6.52539 11.705L7.35118 15.7238L6.82306 16.1218L7.61043 16.7236L7.0151 17.1896L7.79287 17.9079L7.30316 18.2671L8.42662 19.597L13.5254 18.0923L17.1357 15.0055L7.75447 7.96777L6.52539 11.705Z"
        fill="#763E1A" stroke="#763E1A" stroke-width="0.291215" stroke-linecap="round" stroke-linejoin="round" />
    <path d="M29.4725 19.5969L24.3738 18.0923L25.9102 20.4414L23.6152 24.9746L26.6495 24.9358H31.1817L29.4725 19.5969Z"
        fill="#F5841F" stroke="#F5841F" stroke-width="0.291215" stroke-linecap="round" stroke-linejoin="round" />
    <path d="M13.5248 18.0923L8.42614 19.5969L6.72656 24.9358H11.2492L14.2834 24.9746L11.9885 20.4414L13.5248 18.0923Z"
        fill="#F5841F" stroke="#F5841F" stroke-width="0.291215" stroke-linecap="round" stroke-linejoin="round" />
    <path
        d="M20.4381 20.6938L20.7646 15.0054L22.2433 10.9575H15.6562L17.135 15.0054L17.4614 20.6938L17.5863 22.4799L17.5959 26.8967H20.3037L20.3133 22.4799L20.4381 20.6938Z"
        fill="#F5841F" stroke="#F5841F" stroke-width="0.291215" stroke-linecap="round" stroke-linejoin="round" />
</svg>