<svg width="38" height="38" viewBox="0 0 38 38" fill="none" xmlns="http://www.w3.org/2000/svg">
    <circle cx="18.9503" cy="18.8267" r="18.6378" fill="url(#paint0_linear_1647_24147)" />
    <path fill-rule="evenodd" clip-rule="evenodd"
        d="M32.2922 19.0537H29.0066C29.0066 12.3579 23.5596 6.93018 16.8399 6.93018C10.2035 6.93018 4.80803 12.225 4.67597 18.8061C4.53936 25.6089 10.9443 31.5162 17.7722 31.5162H18.631C24.6506 31.5162 32.7186 26.8207 33.9792 21.0996C34.212 20.045 33.376 19.0537 32.2922 19.0537ZM11.9566 19.352C11.9566 20.2474 11.2216 20.9797 10.323 20.9797C9.4244 20.9797 8.68948 20.2471 8.68948 19.352V16.7187C8.68948 15.8233 9.4244 15.091 10.323 15.091C11.2216 15.091 11.9566 15.8233 11.9566 16.7187V19.352ZM15.9972 20.9797C16.8957 20.9797 17.6306 20.2474 17.6306 19.352V16.7187C17.6306 15.8233 16.8957 15.091 15.9972 15.091C15.0988 15.091 14.3636 15.8233 14.3636 16.7187V19.352C14.3636 20.2471 15.0985 20.9797 15.9972 20.9797Z"
        fill="url(#paint1_linear_1647_24147)" />
    <defs>
        <linearGradient id="paint0_linear_1647_24147" x1="0.3125" y1="0.188965" x2="0.3125" y2="37.4645"
            gradientUnits="userSpaceOnUse">
            <stop stop-color="#534BB1" />
            <stop offset="1" stop-color="#551BF9" />
        </linearGradient>
        <linearGradient id="paint1_linear_1647_24147" x1="4.67379" y1="6.93018" x2="4.67379" y2="31.5162"
            gradientUnits="userSpaceOnUse">
            <stop stop-color="white" />
            <stop offset="1" stop-color="white" stop-opacity="0.82" />
        </linearGradient>
    </defs>
</svg>