<svg width="38" height="38" viewBox="0 0 38 38" fill="none" xmlns="http://www.w3.org/2000/svg">
    <circle cx="18.9503" cy="19.2476" r="18.6378" fill="#3B99FC" />
    <path fill-rule="evenodd" clip-rule="evenodd"
        d="M26.2884 14.5165C22.2358 10.4704 15.6653 10.4704 11.6128 14.5165L11.0774 15.051C10.8748 15.2533 10.8748 15.5813 11.0774 15.7836L12.7459 17.4494C12.8472 17.5505 13.0114 17.5505 13.1128 17.4494L13.8315 16.7317C16.6587 13.9091 21.2424 13.9091 24.0696 16.7317L24.7408 17.4019C24.8421 17.503 25.0064 17.503 25.1077 17.4019L26.7761 15.7361C26.9787 15.5338 26.9787 15.2058 26.7761 15.0035L26.2884 14.5165ZM31.2238 19.444L29.7388 17.9614C29.5362 17.7591 29.2077 17.7591 29.0051 17.9614L24.253 22.7059C24.2023 22.7565 24.1202 22.7565 24.0695 22.7059L19.3174 17.9613L19.3174 17.9613C19.1147 17.759 18.7862 17.759 18.5836 17.9613L13.8317 22.7059C13.781 22.7565 13.6989 22.7565 13.6482 22.7059L8.89605 17.9613C8.69342 17.759 8.3649 17.759 8.16227 17.9613L6.67736 19.4439C6.47473 19.6462 6.47473 19.9742 6.67736 20.1765L13.3731 26.8616C13.5757 27.0639 13.9043 27.0639 14.1069 26.8616L18.8589 22.117C18.9095 22.0665 18.9917 22.0665 19.0423 22.117L23.7944 26.8616C23.9971 27.0639 24.3256 27.0639 24.5282 26.8616L31.2238 20.1766C31.4264 19.9743 31.4264 19.6463 31.2238 19.444Z"
        fill="white" />
</svg>